HIERARCHY
ROOT hip
{
	OFFSET 0.000000 0.000000 0.000000
	CHANNELS 6 Xposition Yposition Zposition Xrotation Zrotation Yrotation 
	JOINT abdomen
	{
		OFFSET 0.000000 3.422050 0.000000
		CHANNELS 3 Xrotation Zrotation Yrotation 
		JOINT chest
		{
			OFFSET 0.000000 8.486693 -0.684411
			CHANNELS 3 Xrotation Zrotation Yrotation 
			JOINT neck
			{
				OFFSET 0.000000 10.266162 -0.273764
				CHANNELS 3 Xrotation Zrotation Yrotation 
				JOINT head
				{
					OFFSET 0.000000 3.148285 0.000000
					CHANNELS 3 Xrotation Zrotation Yrotation 
					End Site
					{
						OFFSET 0.000000 3.148289 0.000000
					}
				}
			}
			JOINT lCollar
			{
				OFFSET 3.422053 6.707223 -0.821293
				CHANNELS 3 Yrotation Zrotation Xrotation 
				JOINT lShldr
				{
					OFFSET 3.285171 0.000000 0.000000
					CHANNELS 3 Zrotation Yrotation Xrotation 
					JOINT lForeArm
					{
						OFFSET 10.129278 0.000000 0.000000
						CHANNELS 3 Yrotation Zrotation Xrotation 
						JOINT lHand
						{
							OFFSET 8.486692 0.000000 0.000000
							CHANNELS 3 Zrotation Yrotation Xrotation 
							End Site
							{
								OFFSET 4.106464 0.000000 0.000000
							}
						}
					}
				}
			}
			JOINT rCollar
			{
				OFFSET -3.558935 6.707223 -0.821293
				CHANNELS 3 Yrotation Zrotation Xrotation 
				JOINT rShldr
				{
					OFFSET -3.148289 0.000000 0.000000
					CHANNELS 3 Zrotation Yrotation Xrotation 
					JOINT rForeArm
					{
						OFFSET -10.266159 0.000000 0.000000
						CHANNELS 3 Yrotation Zrotation Xrotation 
						JOINT rHand
						{
							OFFSET -8.349810 0.000000 0.000000
							CHANNELS 3 Zrotation Yrotation Xrotation 
							End Site
							{
								OFFSET -4.106464 0.000000 0.000000
							}
						}
					}
				}
			}
		}
	}
	JOINT lThigh
	{
		OFFSET 5.338403 -1.642589 1.368821
		CHANNELS 3 Xrotation Zrotation Yrotation 
		JOINT lShin
		{
			OFFSET -2.053232 -20.121670 0.000000
			CHANNELS 3 Xrotation Zrotation Yrotation 
			JOINT lFoot
			{
				OFFSET 0.000000 -19.300380 -1.231939
				CHANNELS 3 Xrotation Yrotation Zrotation 
				End Site
				{
					OFFSET 0.000000 -2.463878 4.653993
				}
			}
		}
	}
	JOINT rThigh
	{
		OFFSET -5.338403 -1.642589 1.368821
		CHANNELS 3 Xrotation Zrotation Yrotation 
		JOINT rShin
		{
			OFFSET 2.053232 -20.121670 0.000000
			CHANNELS 3 Xrotation Zrotation Yrotation 
			JOINT rFoot
			{
				OFFSET 0.000000 -19.300380 -1.231939
				CHANNELS 3 Xrotation Yrotation Zrotation 
				End Site
				{
					OFFSET 0.000000 -2.463878 4.653993
				}
			}
		}
	}
}
MOTION
Frames: 18
Frame Time: 0.033315
0.000000 7.889141 0.000000 0.000000 90.000000 0.000000 -0.153365 -19.184935 0.666103 0.082341 -26.472565 -1.228290 12.420826 -0.321678 -36.629333 0.000000 0.000000 0.000000 -5.788524 -10.699446 -1.004971 -36.784801 -29.481020 30.447680 -77.374054 -3.262905 -0.007292 0.998433 0.000000 0.000000 -0.002182 7.999156 -0.194408 21.738039 -36.002834 16.550611 127.000404 -13.002916 59.001320 6.998672 -0.000720 10.597813 -38.128632 18.933180 72.021301 73.217453 -1.965634 -0.107515 40.093277 3.766102 8.075541 -28.119600 -5.532753 -0.181567 40.368015 2.347443 0.197853 42.445007 -3.548405 -7.632689 
0.000000 7.889141 0.000000 0.000000 90.000000 0.000000 -0.153365 -19.184935 0.666103 0.082341 -26.472565 -1.228290 12.578380 -0.690235 -36.778645 0.000000 0.000000 0.000000 -5.788524 -10.699446 -1.004971 -36.781090 -29.649496 30.456558 -77.374054 -3.262905 -0.007292 0.998433 0.000000 0.000000 -0.002182 7.999156 -0.194408 21.738039 -36.002834 16.550611 127.000404 -13.002916 59.001320 6.998672 -0.000720 10.597813 -38.128632 18.933180 72.021301 73.217453 -1.965634 -0.107515 40.093277 3.766102 8.075541 -28.119600 -5.532753 -0.181567 40.368015 2.347443 0.197853 42.445007 -3.548405 -7.632689 
0.000000 7.889141 0.000000 0.000000 90.000000 0.000000 -0.153365 -19.184935 0.666103 0.082341 -26.472565 -1.228290 12.736806 -1.058138 -36.928883 0.000000 0.000000 0.000000 -5.788524 -10.699446 -1.004971 -36.777374 -29.818039 30.465427 -77.374054 -3.262905 -0.007292 0.998433 0.000000 0.000000 -0.002182 7.999156 -0.194408 21.738039 -36.002834 16.550611 127.000404 -13.002916 59.001320 6.998672 -0.000720 10.597813 -38.128632 18.933180 72.021301 73.217453 -1.965634 -0.107515 40.093277 3.766102 8.075541 -28.119600 -5.532753 -0.181567 40.368015 2.347443 0.197853 42.445007 -3.548405 -7.632689 
0.000000 7.889141 0.000000 0.000000 90.000000 0.000000 -0.153365 -19.184935 0.666103 0.082341 -26.472565 -1.228290 12.896111 -1.425374 -37.080059 0.000000 0.000000 0.000000 -5.788524 -10.699446 -1.004971 -36.773708 -29.986671 30.474323 -77.374054 -3.262905 -0.007292 0.998433 0.000000 0.000000 -0.002182 7.999156 -0.194408 21.738039 -36.002834 16.550611 127.000404 -13.002916 59.001320 6.998672 -0.000720 10.597813 -38.128632 18.933180 72.021301 73.217453 -1.965634 -0.107515 40.093277 3.766102 8.075541 -28.119600 -5.532753 -0.181567 40.368015 2.347443 0.197853 42.445007 -3.548405 -7.632689 
0.000000 7.889141 0.000000 0.000000 90.000000 0.000000 -0.153365 -19.184935 0.666103 0.082341 -26.472565 -1.228290 13.056293 -1.791924 -37.232162 0.000000 0.000000 0.000000 -5.788524 -10.699446 -1.004971 -36.770054 -30.155365 30.483217 -77.374054 -3.262905 -0.007292 0.998433 0.000000 0.000000 -0.002182 7.999156 -0.194408 21.738039 -36.002834 16.550611 127.000404 -13.002916 59.001320 6.998672 -0.000720 10.597813 -38.128632 18.933180 72.021301 73.217453 -1.965634 -0.107515 40.093277 3.766102 8.075541 -28.119600 -5.532753 -0.181567 40.368015 2.347443 0.197853 42.445007 -3.548405 -7.632689 
0.000000 7.889141 0.000000 0.000000 90.000000 0.000000 -0.153365 -19.184935 0.666103 0.082341 -26.472565 -1.228290 13.217369 -2.157775 -37.385223 0.000000 0.000000 0.000000 -5.788524 -10.699446 -1.004971 -36.766411 -30.324121 30.492109 -77.374054 -3.262905 -0.007292 0.998433 0.000000 0.000000 -0.002182 7.999156 -0.194408 21.738039 -36.002834 16.550611 127.000404 -13.002916 59.001320 6.998672 -0.000720 10.597813 -38.128632 18.933180 72.021301 73.217453 -1.965634 -0.107515 40.093277 3.766102 8.075541 -28.119600 -5.532753 -0.181567 40.368015 2.347443 0.197853 42.445007 -3.548405 -7.632689 
0.000000 7.889141 0.000000 0.000000 90.000000 0.000000 -0.153365 -19.184935 0.666103 0.082341 -26.472565 -1.228290 13.379338 -2.522913 -37.539234 0.000000 0.000000 0.000000 -5.788524 -10.699446 -1.004971 -36.762802 -30.492960 30.501019 -77.374054 -3.262905 -0.007292 0.998433 0.000000 0.000000 -0.002182 7.999156 -0.194408 21.738039 -36.002834 16.550611 127.000404 -13.002916 59.001320 6.998672 -0.000720 10.597813 -38.128632 18.933180 72.021301 73.217453 -1.965634 -0.107515 40.093277 3.766102 8.075541 -28.119600 -5.532753 -0.181567 40.368015 2.347443 0.197853 42.445007 -3.548405 -7.632689 
0.000000 7.889141 0.000000 0.000000 90.000000 0.000000 -0.153365 -19.184935 0.666103 0.082341 -26.472565 -1.228290 13.542210 -2.887322 -37.694187 0.000000 0.000000 0.000000 -5.788524 -10.699446 -1.004971 -36.759216 -30.661871 30.509933 -77.374054 -3.262905 -0.007292 0.998433 0.000000 0.000000 -0.002182 7.999156 -0.194408 21.738039 -36.002834 16.550611 127.000404 -13.002916 59.001320 6.998672 -0.000720 10.597813 -38.128632 18.933180 72.021301 73.217453 -1.965634 -0.107515 40.093277 3.766102 8.075541 -28.119600 -5.532753 -0.181567 40.368015 2.347443 0.197853 42.445007 -3.548405 -7.632689 
0.000000 7.889141 0.000000 0.000000 90.000000 0.000000 -0.153365 -19.184935 0.666103 0.082341 -26.472565 -1.228290 13.705988 -3.250990 -37.850121 0.000000 0.000000 0.000000 -5.788524 -10.699446 -1.004971 -36.755657 -30.830847 30.518856 -77.374054 -3.262905 -0.007292 0.998433 0.000000 0.000000 -0.002182 7.999156 -0.194408 21.738039 -36.002834 16.550611 127.000404 -13.002916 59.001320 6.998672 -0.000720 10.597813 -38.128632 18.933180 72.021301 73.217453 -1.965634 -0.107515 40.093277 3.766102 8.075541 -28.119600 -5.532753 -0.181567 40.368015 2.347443 0.197853 42.445007 -3.548405 -7.632689 
0.000000 7.889141 0.000000 0.000000 90.000000 0.000000 -0.153365 -19.184935 0.666103 0.082341 -26.472565 -1.228290 13.870677 -3.613903 -38.007008 0.000000 0.000000 0.000000 -5.788524 -10.699446 -1.004971 -36.752117 -30.999897 30.527786 -77.374054 -3.262905 -0.007292 0.998433 0.000000 0.000000 -0.002182 7.999156 -0.194408 21.738039 -36.002834 16.550611 127.000404 -13.002916 59.001320 6.998672 -0.000720 10.597813 -38.128632 18.933180 72.021301 73.217453 -1.965634 -0.107515 40.093277 3.766102 8.075541 -28.119602 -5.532753 -0.181567 40.368015 2.347443 0.197853 42.445007 -3.548405 -7.632689 
0.000000 7.889141 0.000000 0.000000 90.000000 0.000000 -0.153365 -19.184935 0.666103 0.082341 -26.472563 -1.228289 14.036285 -3.976045 -38.164864 0.000000 0.000000 0.000000 -5.788524 -10.699446 -1.004971 -36.748589 -31.169004 30.536711 -77.374054 -3.262905 -0.007292 0.998433 0.000000 0.000000 -0.002182 7.999156 -0.194408 21.738039 -36.002834 16.550611 127.000404 -13.002918 59.001328 6.998672 -0.000720 10.597813 -38.128632 18.933180 72.021301 73.217453 -1.965634 -0.107515 40.093277 3.766102 8.075541 -28.119598 -5.532753 -0.181567 40.368015 2.347443 0.197853 42.445007 -3.548405 -7.632689 
0.000000 7.889141 0.000000 0.000000 90.000000 0.000000 -0.153365 -19.184935 0.666103 0.082341 -26.472567 -1.228290 14.202820 -4.337403 -38.323708 0.000000 0.000000 0.000000 -5.788524 -10.699446 -1.004971 -36.745098 -31.338188 30.545658 -77.374054 -3.262905 -0.007292 0.998433 0.000000 0.000000 -0.002182 7.999156 -0.194408 21.738039 -36.002834 16.550611 127.000404 -13.002918 59.001328 6.998672 -0.000720 10.597813 -38.128632 18.933180 72.021301 73.217453 -1.965634 -0.107515 40.093277 3.766102 8.075541 -28.119600 -5.532753 -0.181567 40.368015 2.347443 0.197853 42.445007 -3.548405 -7.632689 
0.000000 7.889141 0.000000 0.000000 90.000000 0.000000 -0.153365 -19.184935 0.666103 0.082341 -26.472567 -1.228290 14.370286 -4.697961 -38.483528 0.000000 0.000000 0.000000 -5.788524 -10.699446 -1.004971 -36.741627 -31.507437 30.554605 -77.374054 -3.262905 -0.007292 0.998433 0.000000 0.000000 -0.002182 7.999156 -0.194408 21.738039 -36.002834 16.550611 127.000404 -13.002918 59.001328 6.998672 -0.000720 10.597813 -38.128632 18.933180 72.021301 73.217453 -1.965634 -0.107515 40.093277 3.766102 8.075541 -28.119602 -5.532753 -0.181567 40.368015 2.347443 0.197853 42.445007 -3.548405 -7.632689 
0.000000 7.889141 0.000000 0.000000 90.000000 0.000000 -0.153365 -19.184935 0.666103 0.082341 -26.472565 -1.228290 14.538685 -5.057705 -38.644333 0.000000 0.000000 0.000000 -5.788524 -10.699446 -1.004971 -36.738186 -31.676762 30.563570 -77.374054 -3.262905 -0.007292 0.998433 0.000000 0.000000 -0.002182 7.999156 -0.194408 21.738039 -36.002834 16.550611 127.000404 -13.002918 59.001328 6.998672 -0.000720 10.597813 -38.128632 18.933180 72.021301 73.217453 -1.965634 -0.107515 40.093277 3.766102 8.075541 -28.119598 -5.532753 -0.181567 40.368015 2.347443 0.197853 42.445007 -3.548405 -7.632689 
0.000000 7.889141 0.000000 0.000000 90.000000 0.000000 -0.153365 -19.184935 0.666103 0.082341 -26.472565 -1.228290 14.708034 -5.416622 -38.806145 0.000000 0.000000 0.000000 -5.788524 -10.699446 -1.004971 -36.734760 -31.846136 30.572531 -77.374054 -3.262905 -0.007292 0.998433 0.000000 0.000000 -0.002182 7.999156 -0.194408 21.738039 -36.002834 16.550611 127.000404 -13.002918 59.001328 6.998672 -0.000720 10.597813 -38.128632 18.933180 72.021301 73.217453 -1.965634 -0.107515 40.093277 3.766102 8.075541 -28.119600 -5.532753 -0.181567 40.368015 2.347443 0.197853 42.445007 -3.548405 -7.632689 
0.000000 7.889141 0.000000 0.000000 90.000000 0.000000 -0.153365 -19.184935 0.666103 0.082341 -26.472565 -1.228290 14.878329 -5.774699 -38.968952 0.000000 0.000000 0.000000 -5.788524 -10.699446 -1.004971 -36.731358 -32.015575 30.581503 -77.374054 -3.262905 -0.007292 0.998433 0.000000 0.000000 -0.002182 7.999156 -0.194408 21.738039 -36.002834 16.550611 127.000404 -13.002918 59.001328 6.998672 -0.000720 10.597813 -38.128632 18.933180 72.021301 73.217453 -1.965634 -0.107515 40.093277 3.766102 8.075541 -28.119602 -5.532753 -0.181567 40.368015 2.347443 0.197853 42.445007 -3.548405 -7.632689 
0.000000 7.889141 0.000000 0.000000 90.000000 0.000000 -0.153365 -19.184935 0.666103 0.082341 -26.472563 -1.228289 15.049578 -6.131921 -39.132755 0.000000 0.000000 0.000000 -5.788524 -10.699446 -1.004971 -36.727985 -32.185097 30.590492 -77.374054 -3.262905 -0.007292 0.998433 0.000000 0.000000 -0.002182 7.999156 -0.194408 21.738039 -36.002834 16.550611 127.000404 -13.002918 59.001328 6.998672 -0.000720 10.597813 -38.128632 18.933180 72.021301 73.217453 -1.965634 -0.107515 40.093277 3.766102 8.075541 -28.119598 -5.532753 -0.181567 40.368015 2.347443 0.197853 42.445007 -3.548405 -7.632689 
0.000000 7.889141 0.000000 0.000000 90.000000 0.000000 -0.153365 -19.184935 0.666103 0.082341 -26.472567 -1.228290 15.221787 -6.488272 -39.297569 0.000000 0.000000 0.000000 -5.788524 -10.699446 -1.004971 -36.724628 -32.354660 30.599480 -77.374054 -3.262905 -0.007292 0.998433 0.000000 0.000000 -0.002182 7.999156 -0.194408 21.738039 -36.002834 16.550611 127.000404 -13.002918 59.001328 6.998672 -0.000720 10.597813 -38.128632 18.933180 72.021301 73.217453 -1.965634 -0.107515 40.093277 3.766102 8.075541 -28.119600 -5.532753 -0.181567 40.368015 2.347443 0.197853 42.445007 -3.548405 -7.632689 
